<svg xmlns="http://www.w3.org/2000/svg" width="512" height="512" viewBox="0 0 100 100" fill="none">
  <rect width="100" height="100" rx="20" fill="#ffffff"></rect>
  <g transform="translate(50 50) rotate(-45)">
    <polygon points="0,-8 0,-38 -8,-30 0,-38 8,-30" fill="none" stroke="#1f2b47" stroke-width="8" stroke-linecap="round" stroke-linejoin="round"></polygon>
  </g>
  <g transform="translate(50 50) rotate(45)">
    <polygon points="0,-8 0,-38 -8,-30 0,-38 8,-30" fill="none" stroke="#1f2b47" stroke-width="8" stroke-linecap="round" stroke-linejoin="round"></polygon>
  </g>
  <g transform="translate(50 50) rotate(135)">
    <polygon points="0,-8 0,-38 -8,-30 0,-38 8,-30" fill="none" stroke="#1f2b47" stroke-width="8" stroke-linecap="round" stroke-linejoin="round"></polygon>
  </g>
  <g transform="translate(50 50) rotate(-135)">
    <polygon points="0,-8 0,-38 -8,-30 0,-38 8,-30" fill="none" stroke="#ea580c" stroke-width="8" stroke-linecap="round" stroke-linejoin="round"></polygon>
  </g>
  <circle cx="50" cy="50" r="4.5" fill="#1f2b47"></circle>
</svg>
